<?xml version="1.0" encoding="utf-8"?>
<!-- Generator: Adobe Illustrator 19.0.0, SVG Export Plug-In . SVG Version: 6.00 Build 0)  -->
<svg version="1.1" id="layer" xmlns="http://www.w3.org/2000/svg" xmlns:xlink="http://www.w3.org/1999/xlink" x="0px" y="0px"
	 viewBox="-153 -46 652 652" style="enable-background:new -153 -46 652 652;" xml:space="preserve">
<title>ecclesia_group_db</title>
<path d="M51.3,216.9c-1.4-2.1-2.8-4-4.3-5.9c-1.5-1.9-3.1-3.8-4.9-5.4c-1.7-1.8-3.4-3.4-5.4-5c-1.8-1.6-3.8-3-5.8-4.5
	c-3-2.1-6.1-4-9.3-5.8c-3.2-1.8-6.6-3.3-9.9-4.6c-3.4-1.4-6.9-2.5-10.4-3.4c-3.5-0.9-7.1-1.6-10.7-2.1c-1.8-0.2-3.7-0.4-5.4-0.6
	c-1.8-0.2-3.6-0.3-5.4-0.3s-3.7,0-5.5,0.1c-1.8,0.1-3.7,0.2-5.5,0.5c-1.8,0.2-3.7,0.5-5.5,0.8c-1.8,0.3-3.6,0.7-5.4,1.2
	s-3.6,1-5.4,1.5s-3.5,1.2-5.3,1.9l-52.5,21.4c-1.4,0.6-2.9,1.3-4.2,1.9c-1.4,0.7-2.6,1.4-3.9,2.3c-1.3,0.8-2.5,1.7-3.6,2.6
	c-1.1,0.9-2.2,1.8-3.2,2.9c-1.5,1.5-2.9,3-4.2,4.7c-1.3,1.7-2.3,3.4-3.3,5.2s-1.8,3.7-2.4,5.6c-0.6,1.9-1,3.9-1.4,5.8
	c-0.2,1-0.2,2-0.3,3c-0.2,1-0.2,2.1-0.2,3.1c0,1,0.1,2.1,0.2,3.1s0.2,2.1,0.4,3.1c0.2,1,0.5,2,0.7,3c0.3,1,0.6,2.1,1,3.1
	c0.4,1,0.8,2.1,1.3,3c0.5,1,1,2,1.5,3c0.7,1.4,1.6,2.6,2.5,3.8c0.9,1.2,1.8,2.4,2.9,3.6c1,1.1,2.1,2.2,3.2,3.3c1.1,1,2.3,2,3.5,3
	c1.8,1.4,3.8,2.7,5.8,3.8c2,1.1,4.2,2.2,6.3,3c2.2,0.9,4.4,1.6,6.7,2.2c2.3,0.6,4.6,1,7,1.4c1.2,0.2,2.4,0.2,3.6,0.3
	c1.2,0.1,2.4,0.1,3.6,0.1c1.2,0,2.4-0.1,3.6-0.2c1.2-0.1,2.4-0.2,3.6-0.4c1.2-0.2,2.4-0.4,3.6-0.6c1.2-0.2,2.4-0.6,3.5-0.9
	c1.2-0.3,2.3-0.7,3.4-1.1c1.1-0.4,2.2-0.9,3.4-1.4l46.4-20.4c2.1-0.9,3.8-2.2,5.1-3.6s2.3-3.1,2.9-5c0.6-1.8,0.7-3.7,0.5-5.6
	c-0.2-1.9-1-3.8-2.1-5.7c-1.1-1.8-2.6-3.4-4.4-4.6c-1.8-1.3-3.7-2.2-5.8-2.9c-2.1-0.6-4.2-0.9-6.4-0.8s-4.3,0.6-6.4,1.4l-45.9,19.8
	c-0.5,0.2-0.9,0.3-1.4,0.5c-0.5,0.2-0.9,0.2-1.4,0.4c-0.5,0.1-0.9,0.2-1.4,0.2c-0.5,0.1-0.9,0.1-1.4,0.1c-0.7,0-1.4,0-2.1-0.1
	c-0.7-0.1-1.4-0.2-2-0.3c-0.6-0.2-1.4-0.3-2-0.6c-0.6-0.2-1.3-0.5-1.8-0.8c-0.3-0.2-0.6-0.3-0.9-0.5c-0.3-0.2-0.6-0.3-0.9-0.6
	c-0.2-0.2-0.6-0.4-0.8-0.6c-0.2-0.2-0.5-0.4-0.7-0.6c-0.2-0.2-0.5-0.5-0.7-0.7c-0.2-0.2-0.5-0.5-0.6-0.7c-0.2-0.2-0.4-0.6-0.6-0.8
	c-0.2-0.2-0.4-0.6-0.6-0.9c-0.2-0.4-0.4-0.8-0.6-1.2c-0.2-0.4-0.3-0.8-0.5-1.2c-0.2-0.4-0.2-0.8-0.3-1.2c-0.1-0.4-0.2-0.8-0.2-1.2
	c-0.1-0.6-0.1-1.2,0-1.8c0.1-0.6,0.2-1.2,0.3-1.8c0.2-0.6,0.3-1.1,0.6-1.7s0.6-1,0.9-1.6c0.2-0.2,0.3-0.5,0.6-0.7
	c0.2-0.2,0.4-0.5,0.6-0.7c0.2-0.2,0.4-0.5,0.6-0.6c0.2-0.2,0.5-0.4,0.7-0.6c0.2-0.2,0.5-0.4,0.7-0.6c0.2-0.2,0.6-0.4,0.8-0.6
	c0.3-0.2,0.6-0.3,0.9-0.5s0.6-0.3,1-0.4l52.8-22.1c1.4-0.6,2.7-1,4.1-1.4c1.4-0.4,2.7-0.8,4.2-1.1c1.4-0.3,2.8-0.6,4.2-0.7
	c1.4-0.2,2.8-0.2,4.2-0.3c2.1-0.1,4.2,0,6.3,0.2c2.1,0.2,4.2,0.5,6.3,1c2.1,0.5,4.2,1,6.2,1.7c2,0.7,3.9,1.5,5.8,2.4
	c1,0.5,1.8,1,2.8,1.4c0.9,0.6,1.8,1,2.7,1.7c0.9,0.6,1.8,1.2,2.6,1.8c0.8,0.6,1.7,1.3,2.4,2c0.8,0.7,1.6,1.4,2.3,2.2
	c0.7,0.7,1.4,1.5,2.2,2.3c0.7,0.8,1.4,1.6,2,2.5c0.6,0.9,1.3,1.8,1.8,2.6c0.8,1.2,1.4,2.4,2.1,3.7c0.6,1.2,1.2,2.5,1.6,3.7
	c0.5,1.3,0.9,2.5,1.2,3.8c0.3,1.3,0.6,2.5,0.8,3.8c0.3,1.9,0.4,3.8,0.4,5.7c0,1.8-0.2,3.8-0.6,5.6c-0.3,1.8-0.8,3.7-1.4,5.4
	c-0.6,1.8-1.4,3.5-2.4,5.1c-0.5,0.8-1,1.7-1.5,2.4c-0.6,0.8-1.1,1.6-1.8,2.3c-0.6,0.7-1.3,1.5-1.9,2.2c-0.6,0.7-1.4,1.4-2.2,2.1
	c-0.7,0.6-1.5,1.4-2.3,1.9c-0.8,0.6-1.7,1.2-2.6,1.8c-0.9,0.6-1.8,1.1-2.8,1.6s-1.9,1-3,1.4l-74.9,33.8l29.1,43.9c1.4,2,3,3.7,5,5
	c1.9,1.3,4.1,2.2,6.3,2.8c2.2,0.6,4.6,0.7,6.9,0.5c2.3-0.2,4.6-1,6.6-2.1c2-1.1,3.7-2.6,5-4.2c1.3-1.6,2.2-3.4,2.7-5.4
	c0.5-1.9,0.6-4,0.3-6c-0.3-2-1-4.1-2.2-6c-0.1-0.1-0.1-0.2-0.2-0.2c-0.1-0.1-0.1-0.2-0.2-0.2c0-0.1-0.1-0.2-0.2-0.2
	c-0.1-0.1-0.1-0.2-0.2-0.2l-9.3-13.8L24,309.6c2.4-1.1,4.6-2.3,6.9-3.6c2.2-1.3,4.2-2.7,6.2-4.2s3.8-3,5.6-4.6
	c1.8-1.6,3.4-3.3,4.9-5c2.2-2.6,4.3-5.4,6.1-8.2c1.8-2.9,3.3-5.8,4.5-8.9s2.2-6.2,3-9.4c0.7-3.2,1.1-6.4,1.4-9.7
	c0.1-1.6,0.1-3.3,0.1-5c-0.1-1.7-0.2-3.3-0.3-5c-0.2-1.7-0.5-3.3-0.7-5c-0.3-1.7-0.7-3.3-1.2-5c-0.5-1.6-1-3.3-1.6-4.9
	c-0.6-1.6-1.3-3.3-2-4.9s-1.5-3.2-2.4-4.8C53.3,220,52.3,218.4,51.3,216.9 M150.2,191.1c-1.9-5.8-7-9.5-13.9-9.5
	c-8.6,0-16.8,6.7-16.8,22.2c0,15.6,9.3,21.9,16.8,21.9c6.6,0,11.6-2.9,14.2-9.6l2.6,1.7c-2.9,6.6-9.5,10.2-16.9,10.2
	c-13,0-22.5-10.6-22.5-24.2c0-13.4,9.4-24.2,22.5-24.2c7.3,0,13.3,3.4,16.4,10L150.2,191.1z M160.6,226.7v-45.8h5v43.5h17v2.2
	C182.5,226.7,160.6,226.7,160.6,226.7z M187,226.7v-45.8h5v45.8C192,226.7,187,226.7,187,226.7z M204.2,226.7v-45.8h12.1
	c9.5,0,17,3.7,17,12.3c0,6.6-4.3,11.8-13,11.8h-11.2v21.6C209.2,226.7,204.2,226.7,204.2,226.7z M209.1,202.8h6.2
	c7,0,12.8-1.8,12.8-9.9c0-7.5-6.2-10.1-13.7-10.1h-5.2L209.1,202.8C209.2,202.8,209.1,202.8,209.1,202.8z M260.1,219.5
	c1.7,3.4,4.6,6.2,8.6,6.2c5.8,0,9.4-3.9,9.4-9.7c0-14.2-20.3-8.1-20.3-23.1c0-7.6,5.3-13.3,13-13.3c6.4,0,9.3,3.2,10.9,6.2l-2,1.4
	c-2.1-3.7-4.1-5.6-8.7-5.6c-4.8,0-8.2,4.6-8.2,9.3c0,14.1,20.6,7.8,20.6,23.2c0,7.6-5.8,13.9-13.8,13.9c-5.8,0-9.7-2.7-11.8-6.9
	L260.1,219.5z M298.2,183.2h-10.6v-2.2h26v2.2h-10.5v43.5h-5V183.2z M349.9,180.9v32.8c0,5-2.6,14.2-14.1,14.2
	c-8.1,0-16.6-3.9-16.6-16.1v-30.9h5v30.3c0,10.1,5.4,14.4,11.9,14.4c6,0,11-3.8,11-12.6v-32.1H349.9z M360.6,180.9h9.7
	c16.5,0,27.4,7.8,27.4,24.2c0,10.8-8.2,21.5-21.4,21.5h-15.7V180.9z M365.6,224.4h7.7c10.9,0,18.8-7,18.8-19.5
	c0-15.1-8.7-21.7-21.4-21.7h-5V224.4z M405.8,226.7v-45.8h5v45.8C410.8,226.7,405.8,226.7,405.8,226.7z M462.8,203.8
	c0,13.6-9.5,24.2-21.8,24.2c-12.3,0-21.8-10.5-21.8-24.2c0-13.6,9.5-24.2,21.8-24.2C453.3,179.6,462.8,190.1,462.8,203.8z
	 M424.8,203.8c0,14.8,8.5,22.2,16.2,22.2c7.7,0,16.2-7.4,16.2-22.2s-8.5-22.2-16.2-22.2C433.3,181.6,424.8,188.9,424.8,203.8z
	 M118.3,367.6V264.4h27.2c21.5,0,38.4,8.3,38.4,27.8c0,14.8-9.7,26.8-29.3,26.8h-25.2v48.6H118.3z M129.5,314h13.8
	c15.8,0,28.8-4,28.8-22.5c0-17-14.2-22.8-30.9-22.8h-11.8L129.5,314L129.5,314z M223.2,261.6h0.3l42.2,106.1h-11.4l-12.7-32.2h-41.4
	l-12.9,32.2h-6.9L223.2,261.6z M202.2,330.4h37.1L221,282.6L202.2,330.4z M281.3,367.6V264.4h11.1v103.2H281.3z M319.2,367.6V264.4
	h9.7l60.6,79.4h0.3v-79.4h6.4v106.1h-0.3l-69.9-90.8h-0.3v87.9H319.2L319.2,367.6z M433.1,269.5h-23.8v-5.1H468v5.1h-23.8v98.2
	h-11.1L433.1,269.5L433.1,269.5z"/>
</svg>
